IKResults
version=1
nRows=10
nColumns=44
inDegrees=yes

Units are S.I. units (second, meters, Newtons, ...)
Angles are in degrees.

endheader
time	ground_spine_rot_x	ground_spine_rot_y	ground_spine_rot_z	ground_spine_tx	ground_spine_ty	ground_spine_tz	clav_prot	clav_elev	scapula_abduction	scapula_elevation	scapula_upward_rot	scapula_winging	plane_elv	shoulder_elv	axial_rot	elbow_flexion	pro_sup	clav_prot_l	clav_elev_l	pitch2	roll2	yaw2	aux7jnt_r3	aux7jnt_r1	aux7jnt_r2	aux6jnt_r3	aux6jnt_r1	aux6jnt_r2	aux5jnt_r3	aux5jnt_r1	aux5jnt_r2	aux4jnt_r3	aux4jnt_r1	aux4jnt_r2	aux3jnt_r3	aux3jnt_r1	aux3jnt_r2	pitch1	roll1	yaw1	aux1jnt_r3	aux1jnt_r1	aux1jnt_r2
     44.99000000	      4.04111254	     -3.04300542	      0.64565753	     -0.80488841	      1.09869448	      0.88983127	    -21.97474894	     -3.39483695	      9.67044411	    -17.78977218	     11.99826269	     17.31243548	    -70.84997225	     42.93425192	     51.74252507	      0.00000000	     34.32000000	     30.42326055	     -1.16071730	      0.07605935	      0.55620346	     -0.20866787	      0.81492428	      4.36592735	     -2.24768791	      0.95873210	      5.00329687	     -2.61831577	      0.95873210	      6.88350683	     -2.61831577	      0.71904908	      6.88350683	     -2.61831577	      0.47936605	      6.24615557	     -1.12384396	     -0.23526086	      0.07225505	     -0.19082429	     -7.49457290	      2.06995478	     -1.21361263
     45.00000000	      4.04446649	     -3.02228236	      0.62996240	     -0.80493885	      1.09868754	      0.88983510	    -21.96088711	     -3.38778204	      9.68939419	    -17.78148980	     11.99813158	     17.29889451	    -70.90981181	     42.95034798	     51.77036177	      0.00000000	     34.32000000	     30.42326055	     -1.16071730	      0.07761033	      0.55617043	     -0.20389867	      0.83154198	      4.36566805	     -2.19631600	      0.97828228	      5.00299972	     -2.55847299	      0.97828228	      6.88309800	     -2.55847299	      0.73371171	      6.88309800	     -2.55847299	      0.48914114	      6.24578460	     -1.09815800	     -0.23453279	      0.07244238	     -0.19548298	     -7.47137929	      2.07532122	     -1.24324120
     45.01000000	      4.03599072	     -3.00944457	      0.61735424	     -0.80494299	      1.09869329	      0.88992643	    -21.95623566	     -3.38258584	      9.69506528	    -17.77618902	     11.99850577	     17.29346647	    -70.99883653	     42.94186718	     51.85107331	      0.00000000	     34.32000000	     30.42326055	     -1.16071730	      0.07994900	      0.55602369	     -0.19862890	      0.85659919	      4.36451627	     -2.13955213	      1.00776128	      5.00167979	     -2.49234916	      1.00776128	      6.88128205	     -2.49234916	      0.75582096	      6.88128205	     -2.49234916	      0.50388064	      6.24413679	     -1.06977607	     -0.23427069	      0.07230066	     -0.20082882	     -7.46302964	      2.07126124	     -1.27723992
     45.02000000	      4.03505148	     -2.97757738	      0.59472401	     -0.80504478	      1.09866961	      0.88990730	    -21.96310321	     -3.34666901	      9.67041461	    -17.74319799	     11.99810876	     17.28950210	    -70.99786603	     42.91619481	     51.91146509	      0.00000000	     34.32000000	     30.42326055	     -1.16071730	      0.08166583	      0.55581479	     -0.19640228	      0.87499386	      4.36287651	     -2.11556786	      1.02940201	      4.99980065	     -2.46441005	      1.02940201	      6.87869675	     -2.46441005	      0.77205151	      6.87869675	     -2.46441005	      0.51470101	      6.24179086	     -1.05778393	     -0.23413147	      0.07200156	     -0.20275267	     -7.45859449	      2.06269280	     -1.28947529
     45.03000000	      4.05554622	     -2.83506666	      0.55773115	     -0.80515649	      1.09863543	      0.88963205	    -22.38536701	     -3.21571693	      8.95605622	    -17.66951580	     11.99794047	     17.60726111	    -70.66689159	     42.48150191	     43.32844078	      0.00000000	     34.32000000	     30.42326055	     -1.16071730	      0.08711389	      0.55516922	     -0.18786715	      0.93336616	      4.35780905	     -2.02363078	      1.09807514	      4.99399341	     -2.35731320	      1.09807514	      6.87070718	     -2.35731320	      0.82355636	      6.87070718	     -2.35731320	      0.54903757	      6.23454105	     -1.01181539	     -0.23387826	      0.07154174	     -0.21411334	     -7.45052807	      2.04951991	     -1.36172735
     45.04000000	      3.99966511	     -2.96529575	      0.56037345	     -0.80513194	      1.09867428	      0.89017440	    -21.92890283	     -3.33008918	      9.71832760	    -17.72382867	     11.99871563	     17.25604670	    -71.09079707	     42.89195249	     52.02147408	      0.00000000	     34.32000000	     30.42326055	     -1.16071730	      0.08387321	      0.55528729	     -0.19659832	      0.89864440	      4.35873586	     -2.11767953	      1.05722612	      4.99505551	     -2.46686993	      1.05722612	      6.87216841	     -2.46686993	      0.79291959	      6.87216841	     -2.46686993	      0.52861306	      6.23586699	     -1.05883977	     -0.23440474	      0.07139509	     -0.20120272	     -7.46729997	      2.04531852	     -1.27961782
     45.05000000	      3.98018614	     -2.97620597	      0.54895130	     -0.80517972	      1.09867283	      0.89033030	    -21.87880200	     -3.33692861	      9.79922381	    -17.72431278	     11.99863782	     17.21579512	    -71.11895233	     42.93560537	     51.07464058	      0.00000000	     34.32000000	     30.42326055	     -1.16071730	      0.08566111	      0.55516321	     -0.18914344	      0.91780055	      4.35776192	     -2.03737846	      1.07976271	      4.99393939	     -2.37332778	      1.07976271	      6.87063287	     -2.37332778	      0.80982203	      6.87063287	     -2.37332778	      0.53988135	      6.23447362	     -1.01868923	     -0.23317835	      0.07129539	     -0.20738208	     -7.42823143	      2.04246236	     -1.31891763
     45.06000000	      3.95545800	     -2.94498916	      0.52096253	     -0.80527882	      1.09864316	      0.89045845	    -21.91118222	     -3.41617068	      9.77836599	    -17.80241107	     11.99866064	     17.26473855	    -71.20414159	     43.01183810	     51.82255128	      0.00000000	     34.32000000	     30.42326055	     -1.16071730	      0.08714520	      0.55475056	     -0.19113089	      0.93370159	      4.35452280	     -2.05878648	      1.09846977	      4.99022741	     -2.39826582	      1.09846977	      6.86552594	     -2.39826582	      0.82385233	      6.86552594	     -2.39826582	      0.54923488	      6.22983955	     -1.02939324	     -0.23378698	      0.07085188	     -0.20528051	     -7.44762027	      2.02975698	     -1.30555193
     45.07000000	      3.93772992	     -2.91851153	      0.49897478	     -0.80536062	      1.09864286	      0.89054479	    -21.91461009	     -3.42847681	      9.77770609	    -17.81437743	     11.99873575	     17.27098458	    -71.20372862	     43.10224951	     46.11628630	      0.00000000	     34.32000000	     30.42326055	     -1.16071730	      0.08875564	      0.55426372	     -0.19265521	      0.95095640	      4.35070132	     -2.07520587	      1.11876950	      4.98584804	     -2.41739266	      1.11876950	      6.85950083	     -2.41739266	      0.83907712	      6.85950083	     -2.41739266	      0.55938475	      6.22437231	     -1.03760294	     -0.23458918	      0.06973872	     -0.20384469	     -7.47317544	      1.99786715	     -1.29642039
     45.08000000	      3.90647292	     -2.94087953	      0.47917121	     -0.80549093	      1.09862908	      0.89077462	    -21.88251603	     -3.40643368	      9.81893837	    -17.78969751	     11.99803886	     17.23806735	    -71.27146782	     42.98006028	     51.93283540	      0.00000000	     34.32000000	     30.42326055	     -1.16071730	      0.08899795	      0.55385830	     -0.18919894	      0.95355252	      4.34751898	     -2.03797624	      1.12182375	      4.98220111	     -2.37402413	      1.12182375	      6.85448340	     -2.37402413	      0.84136781	      6.85448340	     -2.37402413	      0.56091187	      6.21981945	     -1.01898812	     -0.23287822	      0.06966908	     -0.20505596	     -7.41867065	      1.99587215	     -1.30412384
